<?xml version="1.0" encoding="UTF-8"?>
<svg id="Layer_2" xmlns="http://www.w3.org/2000/svg" viewBox="0 0 1765.98 2096.08">
  <g id="Layer_1-2" data-name="Layer_1">
    <g>
      <path d="M1765.98,1536.88c-5.9,16.2-11.59,32.12-17.49,47.96-39.83,106.97-95.45,205.22-164.41,295.97-21.36,28.11-43.26,55.87-66.05,82.82-28.74,33.98-61.21,64.11-98.95,88.12-39.59,25.18-82.66,40.02-129.69,41.88-28.82,1.14-57.08-3.73-85.04-10.43-32.8-7.87-64.38-19.3-95.61-31.89-40.9-16.49-82.88-29.12-126.66-35.48-51.79-7.53-102.99-4.16-153.82,7.42-34.19,7.78-67.16,19.26-99.69,32.23-37.47,14.93-75.69,27.36-115.33,35.56-61.25,12.67-117.75,1.3-170.52-31.23-36.32-22.38-67.71-50.7-96.84-81.57-44.25-46.91-82.58-98.57-119.66-151.17-72.4-102.68-125.16-215.08-164.58-334.01-23.73-71.61-41.37-144.69-51.57-219.46-9.08-66.52-12.55-133.35-8.2-200.44,6.2-95.76,27.28-187.68,71.59-273.47,45.25-87.6,107.31-160.24,190.61-213.96,65.95-42.53,137.63-69.04,215.52-79.89,61.32-8.54,121.09-2.7,179.65,15.62,43.19,13.51,85.59,29.52,128.59,43.68,28.75,9.46,57.87,17.85,86.96,26.26,15.02,4.34,30.11,3.58,45.37-.46,43.2-11.42,85.23-26.4,127.17-41.59,42.29-15.31,84.73-30.03,128.72-39.85,39.81-8.89,80.01-15.2,120.87-12.93,104.5,5.82,203.23,30.96,291.39,89.93,46.62,31.18,92.88,77,120.96,119.76-3.12,2.1-6.24,4.31-9.46,6.34-42.79,26.98-82,58.28-115.82,96.06-56.21,62.8-90.82,135.84-102.86,219.29-12.31,85.35-5.2,168.81,26.25,249.58,23.49,60.32,60.03,111.82,106.34,156.76,43,41.73,91.34,75.46,146.35,99.45,1.77.77,3.41,1.81,5.89,3.15Z"/>
      <path d="M1322.15,0c.54,5.12,1.14,9.35,1.41,13.61,6.09,95.81-18.71,183.45-70.87,263.48-44.24,67.88-99.54,124.95-168.81,167.69-41.31,25.49-85.88,42.47-134.2,48.72-20.83,2.69-41.76,4.04-63.94,1.26-.68-6.16-1.66-12.3-2-18.47-4.01-72.33,12.63-140.32,44.91-204.52,70.92-141.06,185.2-227.29,337.63-264.39,13.22-3.22,26.89-4.61,40.4-6.56,4.86-.7,9.85-.55,15.49-.81Z"/>
    </g>
  </g>
</svg>